<mxfile host="app.diagrams.net" modified="2023-11-05T04:58:25.425Z" agent="Mozilla/5.0 (Macintosh; Intel Mac OS X 10_15_7) AppleWebKit/537.36 (KHTML, like Gecko) Chrome/118.0.0.0 Safari/537.36" etag="3GFCO4E6LCn8U_qdfa_5" version="22.0.8" type="device">
  <diagram name="ページ1" id="H01zs2txkO8Ybk2KfzqH">
    <mxGraphModel dx="994" dy="685" grid="1" gridSize="10" guides="1" tooltips="1" connect="1" arrows="1" fold="1" page="1" pageScale="1" pageWidth="827" pageHeight="1169" math="0" shadow="0">
      <root>
        <mxCell id="0" />
        <mxCell id="1" parent="0" />
        <mxCell id="7Oj_Q8StVyNwvR1nS6kA-1" value="" style="sketch=0;points=[[0,0,0],[0.25,0,0],[0.5,0,0],[0.75,0,0],[1,0,0],[0,1,0],[0.25,1,0],[0.5,1,0],[0.75,1,0],[1,1,0],[0,0.25,0],[0,0.5,0],[0,0.75,0],[1,0.25,0],[1,0.5,0],[1,0.75,0]];outlineConnect=0;fontColor=#232F3E;fillColor=#C925D1;strokeColor=#ffffff;dashed=0;verticalLabelPosition=bottom;verticalAlign=top;align=center;html=1;fontSize=12;fontStyle=0;aspect=fixed;shape=mxgraph.aws4.resourceIcon;resIcon=mxgraph.aws4.dynamodb;" vertex="1" parent="1">
          <mxGeometry x="580" y="110" width="80" height="80" as="geometry" />
        </mxCell>
        <mxCell id="7Oj_Q8StVyNwvR1nS6kA-2" value="DynamoDB" style="text;html=1;align=center;verticalAlign=middle;resizable=0;points=[];autosize=1;strokeColor=none;fillColor=none;" vertex="1" parent="1">
          <mxGeometry x="580" y="188" width="80" height="30" as="geometry" />
        </mxCell>
        <mxCell id="7Oj_Q8StVyNwvR1nS6kA-3" value="状態管理" style="text;html=1;align=center;verticalAlign=middle;resizable=0;points=[];autosize=1;strokeColor=none;fillColor=none;fontColor=#6666FF;" vertex="1" parent="1">
          <mxGeometry x="585" y="80" width="70" height="30" as="geometry" />
        </mxCell>
        <mxCell id="7Oj_Q8StVyNwvR1nS6kA-4" value="" style="sketch=0;points=[[0,0,0],[0.25,0,0],[0.5,0,0],[0.75,0,0],[1,0,0],[0,1,0],[0.25,1,0],[0.5,1,0],[0.75,1,0],[1,1,0],[0,0.25,0],[0,0.5,0],[0,0.75,0],[1,0.25,0],[1,0.5,0],[1,0.75,0]];outlineConnect=0;fontColor=#232F3E;fillColor=#ED7100;strokeColor=#ffffff;dashed=0;verticalLabelPosition=bottom;verticalAlign=top;align=center;html=1;fontSize=12;fontStyle=0;aspect=fixed;shape=mxgraph.aws4.resourceIcon;resIcon=mxgraph.aws4.lambda;" vertex="1" parent="1">
          <mxGeometry x="400" y="110" width="78" height="78" as="geometry" />
        </mxCell>
        <mxCell id="7Oj_Q8StVyNwvR1nS6kA-5" value="Lambda" style="text;html=1;align=center;verticalAlign=middle;resizable=0;points=[];autosize=1;strokeColor=none;fillColor=none;" vertex="1" parent="1">
          <mxGeometry x="403" y="188" width="70" height="30" as="geometry" />
        </mxCell>
        <mxCell id="7Oj_Q8StVyNwvR1nS6kA-6" value="チャットボット部" style="text;html=1;align=center;verticalAlign=middle;resizable=0;points=[];autosize=1;strokeColor=none;fillColor=none;fontColor=#6666FF;" vertex="1" parent="1">
          <mxGeometry x="379" y="80" width="120" height="30" as="geometry" />
        </mxCell>
        <mxCell id="7Oj_Q8StVyNwvR1nS6kA-7" value="OpenCVで&lt;br&gt;柿ピー画像生成" style="shape=callout;whiteSpace=wrap;html=1;perimeter=calloutPerimeter;size=30;position=0.09;position2=0;align=left;" vertex="1" parent="1">
          <mxGeometry x="490" y="42" width="120" height="72" as="geometry" />
        </mxCell>
        <mxCell id="7Oj_Q8StVyNwvR1nS6kA-8" value="" style="endArrow=classic;startArrow=classic;html=1;rounded=0;" edge="1" parent="1">
          <mxGeometry width="50" height="50" relative="1" as="geometry">
            <mxPoint x="490" y="144.5" as="sourcePoint" />
            <mxPoint x="570" y="145" as="targetPoint" />
          </mxGeometry>
        </mxCell>
        <mxCell id="7Oj_Q8StVyNwvR1nS6kA-9" value="" style="shape=image;verticalLabelPosition=bottom;labelBackgroundColor=default;verticalAlign=top;aspect=fixed;imageAspect=0;image=https://upload.wikimedia.org/wikipedia/commons/thumb/4/41/LINE_logo.svg/768px-LINE_logo.svg.png;" vertex="1" parent="1">
          <mxGeometry x="190" y="114" width="70" height="70" as="geometry" />
        </mxCell>
        <mxCell id="7Oj_Q8StVyNwvR1nS6kA-10" value="" style="endArrow=classic;startArrow=classic;html=1;rounded=0;" edge="1" parent="1">
          <mxGeometry width="50" height="50" relative="1" as="geometry">
            <mxPoint x="270" y="143.5" as="sourcePoint" />
            <mxPoint x="390" y="144" as="targetPoint" />
          </mxGeometry>
        </mxCell>
        <mxCell id="7Oj_Q8StVyNwvR1nS6kA-12" value="LINEチャットボット" style="text;html=1;align=center;verticalAlign=middle;resizable=0;points=[];autosize=1;strokeColor=none;fillColor=none;fontColor=#6666FF;" vertex="1" parent="1">
          <mxGeometry x="160" y="80" width="130" height="30" as="geometry" />
        </mxCell>
        <mxCell id="7Oj_Q8StVyNwvR1nS6kA-14" value="LINE Messaging API" style="text;html=1;align=center;verticalAlign=middle;resizable=0;points=[];autosize=1;strokeColor=none;fillColor=none;" vertex="1" parent="1">
          <mxGeometry x="260" y="154" width="130" height="30" as="geometry" />
        </mxCell>
        <mxCell id="7Oj_Q8StVyNwvR1nS6kA-16" value="" style="sketch=0;points=[[0,0,0],[0.25,0,0],[0.5,0,0],[0.75,0,0],[1,0,0],[0,1,0],[0.25,1,0],[0.5,1,0],[0.75,1,0],[1,1,0],[0,0.25,0],[0,0.5,0],[0,0.75,0],[1,0.25,0],[1,0.5,0],[1,0.75,0]];outlineConnect=0;fontColor=#232F3E;fillColor=#7AA116;strokeColor=#ffffff;dashed=0;verticalLabelPosition=bottom;verticalAlign=top;align=center;html=1;fontSize=12;fontStyle=0;aspect=fixed;shape=mxgraph.aws4.resourceIcon;resIcon=mxgraph.aws4.s3;" vertex="1" parent="1">
          <mxGeometry x="582" y="250" width="78" height="78" as="geometry" />
        </mxCell>
        <mxCell id="7Oj_Q8StVyNwvR1nS6kA-17" value="S3" style="text;html=1;align=center;verticalAlign=middle;resizable=0;points=[];autosize=1;strokeColor=none;fillColor=none;" vertex="1" parent="1">
          <mxGeometry x="605" y="328" width="40" height="30" as="geometry" />
        </mxCell>
        <mxCell id="7Oj_Q8StVyNwvR1nS6kA-18" value="画像ファイル保存" style="text;html=1;align=center;verticalAlign=middle;resizable=0;points=[];autosize=1;strokeColor=none;fillColor=none;fontColor=#6666FF;" vertex="1" parent="1">
          <mxGeometry x="560" y="220" width="120" height="30" as="geometry" />
        </mxCell>
        <mxCell id="7Oj_Q8StVyNwvR1nS6kA-19" value="" style="endArrow=classic;startArrow=classic;html=1;rounded=0;" edge="1" parent="1">
          <mxGeometry width="50" height="50" relative="1" as="geometry">
            <mxPoint x="490" y="183" as="sourcePoint" />
            <mxPoint x="570" y="290" as="targetPoint" />
          </mxGeometry>
        </mxCell>
      </root>
    </mxGraphModel>
  </diagram>
</mxfile>
